{
  "source": "C:\\Users\\Peter\\Desktop\\stuff\\MIUN\\quantitative_research\\video_compression\\videos\\HEVC_CLASS_B\\BasketballDrive_1920x1080_50.y4m",
  "output": "C:\\Users\\Peter\\Desktop\\stuff\\MIUN\\quantitative_research\\video_compression\\compressed_videos\\HEVC_CLASS_B\\vp9\\3\\BasketballDrive_1920x1080_50_vp9.webm",
  "codec": "vp9",
  "ok": "Input #0, yuv4mpegpipe, from 'C:\\Users\\Peter\\Desktop\\stuff\\MIUN\\quantitative_research\\video_compression\\videos\\HEVC_CLASS_B\\BasketballDrive_1920x1080_50.y4m':\n  Duration: 00:00:10.00, start: 0.000000, bitrate: 1244162 kb/s\n  Stream #0:0: Video: rawvideo (I420 / 0x30323449), yuv420p(progressive), 1920x1080, 50 fps, 50 tbr, 50 tbn\n[out#0/webm @ 000002013a759a40] Codec AVOption b:a (set bitrate (in bits/s)) has not been used for any stream. The most likely reason is either wrong type (e.g. a video option with no video streams) or that it is a private option of some decoder which was not actually used for any stream.\nStream mapping:\n  Stream #0:0 -> #0:0 (rawvideo (native) -> vp9 (libvpx-vp9))\nPress [q] to stop, [?] for help\n[libvpx-vp9 @ 000002013a75ce40] v1.15.2-100-g40561f514\nOutput #0, webm, to 'C:\\Users\\Peter\\Desktop\\stuff\\MIUN\\quantitative_research\\video_compression\\compressed_videos\\HEVC_CLASS_B\\vp9\\3\\BasketballDrive_1920x1080_50_vp9.webm':\n  Metadata:\n    encoder         : Lavf62.3.100\n  Stream #0:0: Video: vp9, yuv420p(tv, progressive), 1920x1080, q=2-31, 3000 kb/s, 50 fps, 1k tbn\n    Metadata:\n      encoder         : Lavc62.11.100 libvpx-vp9\n    Side data:\n      cpb: bitrate max/min/avg: 0/0/0 buffer size: 3000000 vbv_delay: N/A\nframe=    0 fps=0.0 q=0.0 size=       0KiB time=N/A bitrate=N/A speed=N/A elapsed=0:00:00.55    \nframe=    0 fps=0.0 q=0.0 size=       0KiB time=N/A bitrate=N/A speed=N/A elapsed=0:00:01.22    \nframe=    2 fps=1.1 q=51.0 size=       0KiB time=00:00:00.04 bitrate=  96.4kbits/s speed=0.0227x elapsed=0:00:01.76    \nframe=    6 fps=2.6 q=54.0 size=       0KiB time=00:00:00.12 bitrate=  32.1kbits/s speed=0.0527x elapsed=0:00:02.27    \nframe=    9 fps=3.2 q=52.0 size=       0KiB time=00:00:00.18 bitrate=  21.4kbits/s speed=0.0644x elapsed=0:00:02.79    \nframe=   11 fps=3.3 q=51.0 size=       0KiB time=00:00:00.22 bitrate=  17.5kbits/s speed=0.0664x elapsed=0:00:03.31    \nframe=   14 fps=3.6 q=49.0 size=       0KiB time=00:00:00.28 bitrate=  13.8kbits/s speed=0.0722x elapsed=0:00:03.87    \nframe=   16 fps=3.6 q=48.0 size=       0KiB time=00:00:00.32 bitrate=  12.1kbits/s speed=0.0717x elapsed=0:00:04.46    \nframe=   18 fps=3.6 q=48.0 size=       0KiB time=00:00:00.36 bitrate=  10.7kbits/s speed=0.0718x elapsed=0:00:05.01    \nframe=   21 fps=3.7 q=48.0 size=       0KiB time=00:00:00.42 bitrate=   9.2kbits/s speed=0.0739x elapsed=0:00:05.68    \nframe=   22 fps=3.4 q=48.0 size=       0KiB time=00:00:00.44 bitrate=   8.8kbits/s speed=0.0686x elapsed=0:00:06.40    \nframe=   24 fps=3.4 q=48.0 size=       0KiB time=00:00:00.48 bitrate=   8.0kbits/s speed=0.0686x elapsed=0:00:06.99    \nframe=   27 fps=3.5 q=49.0 size=       0KiB time=00:00:00.54 bitrate=   7.1kbits/s speed=0.0706x elapsed=0:00:07.65    \nframe=   30 fps=3.6 q=50.0 size=       0KiB time=00:00:00.60 bitrate=   6.4kbits/s speed=0.0728x elapsed=0:00:08.24    \nframe=   32 fps=3.6 q=50.0 size=       0KiB time=00:00:00.64 bitrate=   6.0kbits/s speed=0.0728x elapsed=0:00:08.79    \nframe=   33 fps=3.5 q=51.0 size=       0KiB time=00:00:00.66 bitrate=   5.8kbits/s speed=0.0708x elapsed=0:00:09.32    \nframe=   34 fps=3.4 q=35.0 size=       0KiB time=00:00:00.68 bitrate=   5.7kbits/s speed=0.0689x elapsed=0:00:09.87    \nframe=   36 fps=3.5 q=48.0 size=       0KiB time=00:00:00.72 bitrate=   5.4kbits/s speed=0.0693x elapsed=0:00:10.39    \nframe=   39 fps=3.6 q=50.0 size=       0KiB time=00:00:00.78 bitrate=   4.9kbits/s speed=0.0712x elapsed=0:00:10.95    \nframe=   41 fps=3.6 q=50.0 size=       0KiB time=00:00:00.82 bitrate=   4.7kbits/s speed=0.0713x elapsed=0:00:11.50    \nframe=   44 fps=3.6 q=51.0 size=       0KiB time=00:00:00.88 bitrate=   4.4kbits/s speed=0.0727x elapsed=0:00:12.09    \nframe=   44 fps=3.5 q=51.0 size=       0KiB time=00:00:00.88 bitrate=   4.4kbits/s speed=0.0692x elapsed=0:00:12.71    \nframe=   47 fps=3.5 q=51.0 size=       0KiB time=00:00:00.94 bitrate=   4.1kbits/s speed=0.0708x elapsed=0:00:13.28    \nframe=   49 fps=3.5 q=51.0 size=       0KiB time=00:00:00.98 bitrate=   3.9kbits/s speed=0.0708x elapsed=0:00:13.84    \nframe=   51 fps=3.5 q=52.0 size=       0KiB time=00:00:01.02 bitrate=   3.8kbits/s speed=0.0704x elapsed=0:00:14.48    \nframe=   53 fps=3.5 q=53.0 size=       0KiB time=00:00:01.06 bitrate=   3.6kbits/s speed=0.0705x elapsed=0:00:15.02    \nframe=   55 fps=3.5 q=53.0 size=       0KiB time=00:00:01.10 bitrate=   3.5kbits/s speed=0.0707x elapsed=0:00:15.55    \nframe=   56 fps=3.5 q=36.0 size=       0KiB time=00:00:01.12 bitrate=   3.4kbits/s speed=0.0691x elapsed=0:00:16.19    \nframe=   58 fps=3.5 q=52.0 size=       0KiB time=00:00:01.16 bitrate=   3.3kbits/s speed=0.0692x elapsed=0:00:16.76    \nframe=   60 fps=3.5 q=53.0 size=       0KiB time=00:00:01.20 bitrate=   3.2kbits/s speed=0.0694x elapsed=0:00:17.28    \nframe=   62 fps=3.5 q=53.0 size=       0KiB time=00:00:01.24 bitrate=   3.1kbits/s speed=0.0695x elapsed=0:00:17.83    \nframe=   64 fps=3.5 q=53.0 size=       0KiB time=00:00:01.28 bitrate=   3.0kbits/s speed=0.0697x elapsed=0:00:18.36    \nframe=   66 fps=3.5 q=53.0 size=       0KiB time=00:00:01.32 bitrate=   2.9kbits/s speed=0.0699x elapsed=0:00:18.88    \nframe=   66 fps=3.4 q=53.0 size=       0KiB time=00:00:01.32 bitrate=   2.9kbits/s speed=0.0679x elapsed=0:00:19.45    \nframe=   68 fps=3.4 q=55.0 size=       0KiB time=00:00:01.36 bitrate=   2.8kbits/s speed=0.0679x elapsed=0:00:20.03    \nframe=   70 fps=3.4 q=55.0 size=       0KiB time=00:00:01.40 bitrate=   2.8kbits/s speed=0.068x elapsed=0:00:20.58    \nframe=   72 fps=3.4 q=55.0 size=       0KiB time=00:00:01.44 bitrate=   2.7kbits/s speed=0.068x elapsed=0:00:21.18    \nframe=   74 fps=3.4 q=54.0 size=       0KiB time=00:00:01.48 bitrate=   2.6kbits/s speed=0.0682x elapsed=0:00:21.70    \nframe=   77 fps=3.5 q=53.0 size=       0KiB time=00:00:01.54 bitrate=   2.5kbits/s speed=0.0691x elapsed=0:00:22.28    \nframe=   79 fps=3.5 q=53.0 size=       0KiB time=00:00:01.58 bitrate=   2.4kbits/s speed=0.0691x elapsed=0:00:22.85    \nframe=   82 fps=3.5 q=53.0 size=       0KiB time=00:00:01.64 bitrate=   2.4kbits/s speed=0.0697x elapsed=0:00:23.53    \nframe=   83 fps=3.4 q=53.0 size=       0KiB time=00:00:01.66 bitrate=   2.3kbits/s speed=0.0689x elapsed=0:00:24.08    \nframe=   86 fps=3.5 q=53.0 size=       0KiB time=00:00:01.72 bitrate=   2.2kbits/s speed=0.0697x elapsed=0:00:24.67    \nframe=   89 fps=3.5 q=53.0 size=       0KiB time=00:00:01.78 bitrate=   2.2kbits/s speed=0.0702x elapsed=0:00:25.36    \nframe=   91 fps=3.5 q=52.0 size=       0KiB time=00:00:01.82 bitrate=   2.1kbits/s speed=0.0698x elapsed=0:00:26.08    \nframe=   94 fps=3.5 q=52.0 size=       0KiB time=00:00:01.88 bitrate=   2.1kbits/s speed=0.0704x elapsed=0:00:26.69    \nframe=   95 fps=3.5 q=52.0 size=       0KiB time=00:00:01.90 bitrate=   2.0kbits/s speed=0.0697x elapsed=0:00:27.27    \nframe=   98 fps=3.5 q=52.0 size=       0KiB time=00:00:01.96 bitrate=   2.0kbits/s speed=0.0704x elapsed=0:00:27.82    \nframe=  101 fps=3.5 q=52.0 size=       0KiB time=00:00:02.00 bitrate=   1.9kbits/s speed=0.0702x elapsed=0:00:28.47    \nframe=  101 fps=3.5 q=52.0 size=       0KiB time=00:00:02.02 bitrate=   1.9kbits/s speed=0.069x elapsed=0:00:29.26    \nframe=  104 fps=3.5 q=56.0 size=       0KiB time=00:00:02.08 bitrate=   1.9kbits/s speed=0.0697x elapsed=0:00:29.83    \nframe=  107 fps=3.5 q=57.0 size=       0KiB time=00:00:02.12 bitrate=   1.8kbits/s speed=0.0698x elapsed=0:00:30.38    \nframe=  109 fps=3.5 q=57.0 size=       0KiB time=00:00:02.18 bitrate=   1.8kbits/s speed=0.0703x elapsed=0:00:30.99    \nframe=  112 fps=3.5 q=57.0 size=       0KiB time=00:00:02.24 bitrate=   1.7kbits/s speed=0.071x elapsed=0:00:31.57    \nframe=  113 fps=3.5 q=39.0 size=       0KiB time=00:00:02.24 bitrate=   1.7kbits/s speed=0.0697x elapsed=0:00:32.15    \nframe=  115 fps=3.5 q=52.0 size=       0KiB time=00:00:02.30 bitrate=   1.7kbits/s speed=0.0701x elapsed=0:00:32.80    \nframe=  119 fps=3.6 q=53.0 size=       0KiB time=00:00:02.36 bitrate=   1.6kbits/s speed=0.0706x elapsed=0:00:33.43    \nframe=  120 fps=3.5 q=53.0 size=       0KiB time=00:00:02.40 bitrate=   1.6kbits/s speed=0.0702x elapsed=0:00:34.21    \nframe=  121 fps=3.5 q=31.0 size=       0KiB time=00:00:02.42 bitrate=   1.6kbits/s speed=0.0691x elapsed=0:00:35.03    \nframe=  123 fps=3.5 q=58.0 size=       0KiB time=00:00:02.46 bitrate=   1.6kbits/s speed=0.0691x elapsed=0:00:35.58    \nframe=  125 fps=3.5 q=59.0 size=       0KiB time=00:00:02.50 bitrate=   1.5kbits/s speed=0.0692x elapsed=0:00:36.13    \nframe=  127 fps=3.5 q=59.0 size=       0KiB time=00:00:02.54 bitrate=   1.5kbits/s speed=0.0693x elapsed=0:00:36.65    \nframe=  128 fps=3.4 q=59.0 size=       0KiB time=00:00:02.56 bitrate=   1.5kbits/s speed=0.0688x elapsed=0:00:37.19    \nframe=  128 fps=3.4 q=59.0 size=       0KiB time=00:00:02.56 bitrate=   1.5kbits/s speed=0.0679x elapsed=0:00:37.72    \nframe=  130 fps=3.4 q=52.0 size=     768KiB time=00:00:02.60 bitrate=2419.8kbits/s speed=0.068x elapsed=0:00:38.25    \nframe=  132 fps=3.4 q=51.0 size=     768KiB time=00:00:02.64 bitrate=2383.1kbits/s speed=0.0681x elapsed=0:00:38.78    \nframe=  134 fps=3.4 q=51.0 size=     768KiB time=00:00:02.68 bitrate=2347.6kbits/s speed=0.0681x elapsed=0:00:39.32    \nframe=  136 fps=3.4 q=51.0 size=     768KiB time=00:00:02.72 bitrate=2313.0kbits/s speed=0.0682x elapsed=0:00:39.86    \nframe=  137 fps=3.4 q=51.0 size=     768KiB time=00:00:02.74 bitrate=2296.2kbits/s speed=0.0678x elapsed=0:00:40.39    \nframe=  139 fps=3.4 q=51.0 size=     768KiB time=00:00:02.78 bitrate=2263.1kbits/s speed=0.0679x elapsed=0:00:40.92    \nframe=  139 fps=3.4 q=51.0 size=     768KiB time=00:00:02.78 bitrate=2263.1kbits/s speed=0.067x elapsed=0:00:41.47    \nframe=  141 fps=3.4 q=51.0 size=     768KiB time=00:00:02.82 bitrate=2231.0kbits/s speed=0.0671x elapsed=0:00:42.00    \nframe=  143 fps=3.4 q=50.0 size=     768KiB time=00:00:02.86 bitrate=2199.8kbits/s speed=0.0672x elapsed=0:00:42.54    \nframe=  144 fps=3.3 q=51.0 size=     768KiB time=00:00:02.88 bitrate=2184.5kbits/s speed=0.0668x elapsed=0:00:43.08    \nframe=  146 fps=3.3 q=52.0 size=     768KiB time=00:00:02.92 bitrate=2154.6kbits/s speed=0.0669x elapsed=0:00:43.62    \nframe=  147 fps=3.3 q=52.0 size=     768KiB time=00:00:02.94 bitrate=2140.0kbits/s speed=0.0666x elapsed=0:00:44.15    \nframe=  148 fps=3.3 q=52.0 size=     768KiB time=00:00:02.96 bitrate=2125.5kbits/s speed=0.0663x elapsed=0:00:44.67    \nframe=  150 fps=3.3 q=53.0 size=     768KiB time=00:00:03.00 bitrate=2097.2kbits/s speed=0.0664x elapsed=0:00:45.19    \nframe=  150 fps=3.3 q=53.0 size=     768KiB time=00:00:03.00 bitrate=2097.2kbits/s speed=0.0656x elapsed=0:00:45.73    \nframe=  152 fps=3.3 q=54.0 size=     768KiB time=00:00:03.04 bitrate=2069.6kbits/s speed=0.0657x elapsed=0:00:46.27    \nframe=  153 fps=3.3 q=53.0 size=     768KiB time=00:00:03.06 bitrate=2056.0kbits/s speed=0.0654x elapsed=0:00:46.81    \nframe=  155 fps=3.3 q=54.0 size=     768KiB time=00:00:03.10 bitrate=2029.5kbits/s speed=0.0655x elapsed=0:00:47.34    \nframe=  156 fps=3.3 q=54.0 size=     768KiB time=00:00:03.12 bitrate=2016.5kbits/s speed=0.0652x elapsed=0:00:47.87    \nframe=  156 fps=3.2 q=54.0 size=     768KiB time=00:00:03.12 bitrate=2016.5kbits/s speed=0.0645x elapsed=0:00:48.40    \nframe=  158 fps=3.2 q=53.0 size=     768KiB time=00:00:03.16 bitrate=1991.0kbits/s speed=0.0646x elapsed=0:00:48.94    \nframe=  160 fps=3.2 q=51.0 size=     768KiB time=00:00:03.20 bitrate=1966.1kbits/s speed=0.0647x elapsed=0:00:49.46    \nframe=  161 fps=3.2 q=51.0 size=     768KiB time=00:00:03.22 bitrate=1953.9kbits/s speed=0.0644x elapsed=0:00:50.00    \nframe=  163 fps=3.2 q=51.0 size=     768KiB time=00:00:03.26 bitrate=1929.9kbits/s speed=0.0645x elapsed=0:00:50.53    \nframe=  164 fps=3.2 q=51.0 size=     768KiB time=00:00:03.28 bitrate=1918.1kbits/s speed=0.0642x elapsed=0:00:51.06    \nframe=  165 fps=3.2 q=51.0 size=     768KiB time=00:00:03.30 bitrate=1906.5kbits/s speed=0.064x elapsed=0:00:51.59    \nframe=  167 fps=3.2 q=52.0 size=     768KiB time=00:00:03.34 bitrate=1883.7kbits/s speed=0.0641x elapsed=0:00:52.11    \nframe=  167 fps=3.2 q=52.0 size=     768KiB time=00:00:03.34 bitrate=1883.7kbits/s speed=0.0634x elapsed=0:00:52.66    \nframe=  168 fps=3.2 q=35.0 size=     768KiB time=00:00:03.36 bitrate=1872.5kbits/s speed=0.0631x elapsed=0:00:53.22    \nframe=  170 fps=3.2 q=52.0 size=     768KiB time=00:00:03.40 bitrate=1850.4kbits/s speed=0.0633x elapsed=0:00:53.75    \nframe=  172 fps=3.2 q=52.0 size=     768KiB time=00:00:03.44 bitrate=1828.9kbits/s speed=0.0634x elapsed=0:00:54.28    \nframe=  173 fps=3.2 q=52.0 size=     768KiB time=00:00:03.46 bitrate=1818.3kbits/s speed=0.0631x elapsed=0:00:54.82    \nframe=  175 fps=3.2 q=53.0 size=     768KiB time=00:00:03.50 bitrate=1797.6kbits/s speed=0.0632x elapsed=0:00:55.35    \nframe=  176 fps=3.1 q=53.0 size=     768KiB time=00:00:03.52 bitrate=1787.3kbits/s speed=0.063x elapsed=0:00:55.91    \nframe=  178 fps=3.2 q=52.0 size=     768KiB time=00:00:03.56 bitrate=1767.3kbits/s speed=0.063x elapsed=0:00:56.46    \nframe=  178 fps=3.1 q=52.0 size=     768KiB time=00:00:03.56 bitrate=1767.3kbits/s speed=0.0624x elapsed=0:00:57.01    \nframe=  179 fps=3.1 q=35.0 size=     768KiB time=00:00:03.58 bitrate=1757.4kbits/s speed=0.0622x elapsed=0:00:57.54    \nframe=  181 fps=3.1 q=51.0 size=     768KiB time=00:00:03.62 bitrate=1738.0kbits/s speed=0.0623x elapsed=0:00:58.08    \nframe=  182 fps=3.1 q=51.0 size=     768KiB time=00:00:03.64 bitrate=1728.4kbits/s speed=0.0621x elapsed=0:00:58.61    \nframe=  184 fps=3.1 q=51.0 size=     768KiB time=00:00:03.68 bitrate=1709.6kbits/s speed=0.0622x elapsed=0:00:59.13    \nframe=  185 fps=3.1 q=51.0 size=     768KiB time=00:00:03.70 bitrate=1700.4kbits/s speed=0.062x elapsed=0:00:59.68    \nframe=  186 fps=3.1 q=51.0 size=     768KiB time=00:00:03.72 bitrate=1691.3kbits/s speed=0.0618x elapsed=0:01:00.24    \nframe=  188 fps=3.1 q=51.0 size=     768KiB time=00:00:03.76 bitrate=1673.3kbits/s speed=0.0619x elapsed=0:01:00.77    \nframe=  189 fps=3.1 q=51.0 size=     768KiB time=00:00:03.78 bitrate=1664.4kbits/s speed=0.0616x elapsed=0:01:01.32    \nframe=  189 fps=3.1 q=51.0 size=     768KiB time=00:00:03.78 bitrate=1664.4kbits/s speed=0.0611x elapsed=0:01:01.86    \nframe=  191 fps=3.1 q=52.0 size=     768KiB time=00:00:03.82 bitrate=1647.0kbits/s speed=0.0612x elapsed=0:01:02.40    \nframe=  192 fps=3.0 q=50.0 size=     768KiB time=00:00:03.84 bitrate=1638.4kbits/s speed=0.061x elapsed=0:01:02.95    \nframe=  194 fps=3.1 q=50.0 size=     768KiB time=00:00:03.88 bitrate=1621.5kbits/s speed=0.0611x elapsed=0:01:03.47    \nframe=  195 fps=3.0 q=51.0 size=     768KiB time=00:00:03.90 bitrate=1613.2kbits/s speed=0.0609x elapsed=0:01:04.02    \nframe=  197 fps=3.1 q=51.0 size=     768KiB time=00:00:03.94 bitrate=1596.8kbits/s speed=0.061x elapsed=0:01:04.56    \nframe=  198 fps=3.0 q=51.0 size=     768KiB time=00:00:03.96 bitrate=1588.8kbits/s speed=0.0608x elapsed=0:01:05.10    \nframe=  200 fps=3.0 q=51.0 size=     768KiB time=00:00:04.00 bitrate=1572.9kbits/s speed=0.0609x elapsed=0:01:05.63    \nframe=  200 fps=3.0 q=51.0 size=     768KiB time=00:00:04.00 bitrate=1572.9kbits/s speed=0.0604x elapsed=0:01:06.18    \nframe=  202 fps=3.0 q=51.0 size=     768KiB time=00:00:04.04 bitrate=1557.3kbits/s speed=0.0605x elapsed=0:01:06.72    \nframe=  203 fps=3.0 q=49.0 size=     768KiB time=00:00:04.06 bitrate=1549.6kbits/s speed=0.0604x elapsed=0:01:07.26    \nframe=  205 fps=3.0 q=50.0 size=     768KiB time=00:00:04.10 bitrate=1534.5kbits/s speed=0.0605x elapsed=0:01:07.80    \nframe=  206 fps=3.0 q=51.0 size=     768KiB time=00:00:04.12 bitrate=1527.1kbits/s speed=0.0603x elapsed=0:01:08.35    \nframe=  208 fps=3.0 q=51.0 size=     768KiB time=00:00:04.16 bitrate=1512.4kbits/s speed=0.0604x elapsed=0:01:08.87    \nframe=  209 fps=3.0 q=52.0 size=     768KiB time=00:00:04.18 bitrate=1505.1kbits/s speed=0.0602x elapsed=0:01:09.40    \nframe=  211 fps=3.0 q=52.0 size=     768KiB time=00:00:04.22 bitrate=1490.9kbits/s speed=0.0603x elapsed=0:01:09.93    \nframe=  211 fps=3.0 q=52.0 size=     768KiB time=00:00:04.22 bitrate=1490.9kbits/s speed=0.0599x elapsed=0:01:10.48    \nframe=  212 fps=3.0 q=41.0 size=     768KiB time=00:00:04.24 bitrate=1483.8kbits/s speed=0.0597x elapsed=0:01:11.03    \nframe=  214 fps=3.0 q=52.0 size=     768KiB time=00:00:04.28 bitrate=1470.0kbits/s speed=0.0598x elapsed=0:01:11.56    \nframe=  215 fps=3.0 q=52.0 size=     768KiB time=00:00:04.30 bitrate=1463.1kbits/s speed=0.0596x elapsed=0:01:12.10    \nframe=  217 fps=3.0 q=53.0 size=     768KiB time=00:00:04.34 bitrate=1449.6kbits/s speed=0.0598x elapsed=0:01:12.62    \nframe=  217 fps=3.0 q=53.0 size=     768KiB time=00:00:04.34 bitrate=1449.6kbits/s speed=0.0593x elapsed=0:01:13.19    \nframe=  218 fps=3.0 q=41.0 size=     768KiB time=00:00:04.36 bitrate=1443.0kbits/s speed=0.0591x elapsed=0:01:13.75    \nframe=  220 fps=3.0 q=52.0 size=     768KiB time=00:00:04.40 bitrate=1429.9kbits/s speed=0.0592x elapsed=0:01:14.28    \nframe=  221 fps=3.0 q=52.0 size=     768KiB time=00:00:04.42 bitrate=1423.4kbits/s speed=0.0591x elapsed=0:01:14.81    \nframe=  223 fps=3.0 q=52.0 size=     768KiB time=00:00:04.46 bitrate=1410.6kbits/s speed=0.0592x elapsed=0:01:15.33    \nframe=  223 fps=2.9 q=52.0 size=     768KiB time=00:00:04.46 bitrate=1410.6kbits/s speed=0.0588x elapsed=0:01:15.87    \nframe=  225 fps=2.9 q=52.0 size=     768KiB time=00:00:04.50 bitrate=1398.1kbits/s speed=0.0589x elapsed=0:01:16.41    \nframe=  227 fps=2.9 q=50.0 size=     768KiB time=00:00:04.54 bitrate=1385.8kbits/s speed=0.059x elapsed=0:01:16.95    \nframe=  229 fps=3.0 q=49.0 size=     768KiB time=00:00:04.56 bitrate=1379.7kbits/s speed=0.0588x elapsed=0:01:17.48    \nframe=  229 fps=2.9 q=49.0 size=     768KiB time=00:00:04.58 bitrate=1373.7kbits/s speed=0.0587x elapsed=0:01:18.04    \nframe=  231 fps=2.9 q=49.0 size=     768KiB time=00:00:04.62 bitrate=1361.8kbits/s speed=0.0588x elapsed=0:01:18.59    \nframe=  232 fps=2.9 q=48.0 size=     768KiB time=00:00:04.62 bitrate=1361.8kbits/s speed=0.0584x elapsed=0:01:19.16    \nframe=  233 fps=2.9 q=47.0 size=     768KiB time=00:00:04.66 bitrate=1350.1kbits/s speed=0.0584x elapsed=0:01:19.75    \nframe=  235 fps=2.9 q=47.0 size=     768KiB time=00:00:04.70 bitrate=1338.6kbits/s speed=0.0585x elapsed=0:01:20.28    \nframe=  235 fps=2.9 q=47.0 size=     768KiB time=00:00:04.70 bitrate=1338.6kbits/s speed=0.0582x elapsed=0:01:20.81    \nframe=  237 fps=2.9 q=52.0 size=     768KiB time=00:00:04.74 bitrate=1327.3kbits/s speed=0.0582x elapsed=0:01:21.44    \nframe=  240 fps=2.9 q=53.0 size=     768KiB time=00:00:04.80 bitrate=1310.7kbits/s speed=0.0585x elapsed=0:01:21.99    \nframe=  242 fps=2.9 q=54.0 size=     768KiB time=00:00:04.84 bitrate=1299.9kbits/s speed=0.0586x elapsed=0:01:22.58    \nframe=  245 fps=2.9 q=55.0 size=     768KiB time=00:00:04.88 bitrate=1289.2kbits/s speed=0.0587x elapsed=0:01:23.20    \nframe=  246 fps=2.9 q=55.0 size=     768KiB time=00:00:04.92 bitrate=1278.8kbits/s speed=0.0587x elapsed=0:01:23.85    \nframe=  249 fps=2.9 q=50.0 size=     768KiB time=00:00:04.98 bitrate=1263.3kbits/s speed=0.0589x elapsed=0:01:24.51    \nframe=  252 fps=3.0 q=50.0 size=     768KiB time=00:00:05.02 bitrate=1253.3kbits/s speed=0.0589x elapsed=0:01:25.18    \nframe=  255 fps=3.0 q=50.0 size=     768KiB time=00:00:05.08 bitrate=1238.5kbits/s speed=0.0591x elapsed=0:01:25.93    \nframe=  256 fps=3.0 q=50.0 size=     768KiB time=00:00:05.12 bitrate=1228.8kbits/s speed=0.059x elapsed=0:01:26.70    \nframe=  259 fps=3.0 q=54.0 size=    1792KiB time=00:00:05.18 bitrate=2834.0kbits/s speed=0.0593x elapsed=0:01:27.41    \nframe=  263 fps=3.0 q=55.0 size=    1792KiB time=00:00:05.24 bitrate=2801.5kbits/s speed=0.0596x elapsed=0:01:27.97    \nframe=  267 fps=3.0 q=54.0 size=    1792KiB time=00:00:05.32 bitrate=2759.4kbits/s speed=0.0601x elapsed=0:01:28.58    \nframe=  268 fps=3.0 q=37.0 size=    1792KiB time=00:00:05.36 bitrate=2738.8kbits/s speed=0.06x elapsed=0:01:29.31    \nframe=  271 fps=3.0 q=48.0 size=    1792KiB time=00:00:05.42 bitrate=2708.5kbits/s speed=0.0603x elapsed=0:01:29.86    \nframe=  274 fps=3.0 q=47.0 size=    1792KiB time=00:00:05.46 bitrate=2688.7kbits/s speed=0.0603x elapsed=0:01:30.53    \nframe=  277 fps=3.0 q=47.0 size=    1792KiB time=00:00:05.54 bitrate=2649.8kbits/s speed=0.0607x elapsed=0:01:31.20    \nframe=  278 fps=3.0 q=48.0 size=    1792KiB time=00:00:05.56 bitrate=2640.3kbits/s speed=0.0606x elapsed=0:01:31.72    \nframe=  280 fps=3.0 q=48.0 size=    1792KiB time=00:00:05.60 bitrate=2621.4kbits/s speed=0.0607x elapsed=0:01:32.28    \nframe=  282 fps=3.0 q=49.0 size=    1792KiB time=00:00:05.62 bitrate=2612.1kbits/s speed=0.0605x elapsed=0:01:32.85    \nframe=  284 fps=3.0 q=49.0 size=    1792KiB time=00:00:05.68 bitrate=2584.5kbits/s speed=0.0608x elapsed=0:01:33.42    \nframe=  286 fps=3.0 q=50.0 size=    1792KiB time=00:00:05.72 bitrate=2566.4kbits/s speed=0.0609x elapsed=0:01:33.96    \nframe=  289 fps=3.1 q=51.0 size=    1792KiB time=00:00:05.78 bitrate=2539.8kbits/s speed=0.0611x elapsed=0:01:34.53    \nframe=  290 fps=3.0 q=34.0 size=    1792KiB time=00:00:05.80 bitrate=2531.0kbits/s speed=0.061x elapsed=0:01:35.11    \nframe=  292 fps=3.1 q=50.0 size=    1792KiB time=00:00:05.84 bitrate=2513.7kbits/s speed=0.0611x elapsed=0:01:35.63    \nframe=  295 fps=3.1 q=51.0 size=    1792KiB time=00:00:05.88 bitrate=2496.6kbits/s speed=0.0612x elapsed=0:01:36.14    \nframe=  297 fps=3.1 q=51.0 size=    1792KiB time=00:00:05.94 bitrate=2471.4kbits/s speed=0.0614x elapsed=0:01:36.69    \nframe=  299 fps=3.1 q=52.0 size=    1792KiB time=00:00:05.98 bitrate=2454.9kbits/s speed=0.0615x elapsed=0:01:37.26    \nframe=  300 fps=3.1 q=53.0 size=    1792KiB time=00:00:06.00 bitrate=2446.7kbits/s speed=0.0613x elapsed=0:01:37.84    \nframe=  303 fps=3.1 q=53.0 size=    1792KiB time=00:00:06.06 bitrate=2422.5kbits/s speed=0.0616x elapsed=0:01:38.36    \nframe=  305 fps=3.1 q=55.0 size=    1792KiB time=00:00:06.10 bitrate=2406.6kbits/s speed=0.0617x elapsed=0:01:38.88    \nframe=  306 fps=3.1 q=55.0 size=    1792KiB time=00:00:06.12 bitrate=2398.7kbits/s speed=0.0615x elapsed=0:01:39.47    \nframe=  308 fps=3.1 q=55.0 size=    1792KiB time=00:00:06.16 bitrate=2383.1kbits/s speed=0.0616x elapsed=0:01:39.99    \nframe=  310 fps=3.1 q=54.0 size=    1792KiB time=00:00:06.20 bitrate=2367.8kbits/s speed=0.0617x elapsed=0:01:40.51    \nframe=  312 fps=3.1 q=54.0 size=    1792KiB time=00:00:06.24 bitrate=2352.6kbits/s speed=0.0618x elapsed=0:01:41.04    \nframe=  315 fps=3.1 q=54.0 size=    1792KiB time=00:00:06.30 bitrate=2330.2kbits/s speed=0.062x elapsed=0:01:41.64    \nframe=  317 fps=3.1 q=54.0 size=    1792KiB time=00:00:06.34 bitrate=2315.5kbits/s speed=0.062x elapsed=0:01:42.18    \nframe=  317 fps=3.1 q=54.0 size=    1792KiB time=00:00:06.34 bitrate=2315.5kbits/s speed=0.0617x elapsed=0:01:42.76    \nframe=  320 fps=3.1 q=53.0 size=    1792KiB time=00:00:06.40 bitrate=2293.8kbits/s speed=0.062x elapsed=0:01:43.28    \nframe=  323 fps=3.1 q=53.0 size=    1792KiB time=00:00:06.46 bitrate=2272.5kbits/s speed=0.0622x elapsed=0:01:43.88    \nframe=  325 fps=3.1 q=54.0 size=    1792KiB time=00:00:06.48 bitrate=2265.4kbits/s speed=0.0621x elapsed=0:01:44.40    \nframe=  327 fps=3.1 q=55.0 size=    1792KiB time=00:00:06.54 bitrate=2244.7kbits/s speed=0.0622x elapsed=0:01:45.06    \nframe=  328 fps=3.1 q=55.0 size=    1792KiB time=00:00:06.56 bitrate=2237.8kbits/s speed=0.0621x elapsed=0:01:45.58    \nframe=  332 fps=3.1 q=52.0 size=    1792KiB time=00:00:06.62 bitrate=2217.5kbits/s speed=0.0624x elapsed=0:01:46.09    \nframe=  334 fps=3.1 q=52.0 size=    1792KiB time=00:00:06.68 bitrate=2197.6kbits/s speed=0.0626x elapsed=0:01:46.67    \nframe=  336 fps=3.1 q=51.0 size=    1792KiB time=00:00:06.70 bitrate=2191.1kbits/s speed=0.0625x elapsed=0:01:47.21    \nframe=  338 fps=3.1 q=50.0 size=    1792KiB time=00:00:06.76 bitrate=2171.6kbits/s speed=0.0627x elapsed=0:01:47.80    \nframe=  340 fps=3.1 q=50.0 size=    1792KiB time=00:00:06.80 bitrate=2158.8kbits/s speed=0.0627x elapsed=0:01:48.41    \nframe=  342 fps=3.1 q=50.0 size=    1792KiB time=00:00:06.84 bitrate=2146.2kbits/s speed=0.0627x elapsed=0:01:49.10    \nframe=  345 fps=3.1 q=48.0 size=    1792KiB time=00:00:06.90 bitrate=2127.5kbits/s speed=0.0629x elapsed=0:01:49.68    \nframe=  346 fps=3.1 q=48.0 size=    1792KiB time=00:00:06.92 bitrate=2121.4kbits/s speed=0.0628x elapsed=0:01:50.27    \nframe=  349 fps=3.1 q=50.0 size=    1792KiB time=00:00:06.98 bitrate=2103.2kbits/s speed=0.063x elapsed=0:01:50.82    \nframe=  352 fps=3.2 q=50.0 size=    1792KiB time=00:00:07.04 bitrate=2085.2kbits/s speed=0.0632x elapsed=0:01:51.37    \nframe=  354 fps=3.2 q=51.0 size=    1792KiB time=00:00:07.08 bitrate=2073.5kbits/s speed=0.0633x elapsed=0:01:51.88    \nframe=  356 fps=3.2 q=51.0 size=    1792KiB time=00:00:07.12 bitrate=2061.8kbits/s speed=0.0633x elapsed=0:01:52.40    \nframe=  358 fps=3.2 q=35.0 size=    1792KiB time=00:00:07.16 bitrate=2050.3kbits/s speed=0.0634x elapsed=0:01:52.93    \nframe=  361 fps=3.2 q=45.0 size=    1792KiB time=00:00:07.22 bitrate=2033.2kbits/s speed=0.0636x elapsed=0:01:53.46    \nframe=  363 fps=3.2 q=47.0 size=    1792KiB time=00:00:07.26 bitrate=2022.0kbits/s speed=0.0637x elapsed=0:01:53.98    \nframe=  366 fps=3.2 q=48.0 size=    1792KiB time=00:00:07.32 bitrate=2005.5kbits/s speed=0.0639x elapsed=0:01:54.49    \nframe=  368 fps=3.2 q=50.0 size=    1792KiB time=00:00:07.36 bitrate=1994.6kbits/s speed=0.064x elapsed=0:01:55.02    \nframe=  368 fps=3.2 q=50.0 size=    1792KiB time=00:00:07.36 bitrate=1994.6kbits/s speed=0.0637x elapsed=0:01:55.57    \nframe=  371 fps=3.2 q=49.0 size=    1792KiB time=00:00:07.40 bitrate=1983.8kbits/s speed=0.0637x elapsed=0:01:56.14    \nframe=  372 fps=3.2 q=49.0 size=    1792KiB time=00:00:07.44 bitrate=1973.1kbits/s speed=0.0637x elapsed=0:01:56.72    \nframe=  374 fps=3.2 q=50.0 size=    1792KiB time=00:00:07.48 bitrate=1962.6kbits/s speed=0.0638x elapsed=0:01:57.29    \nframe=  376 fps=3.2 q=50.0 size=    1792KiB time=00:00:07.52 bitrate=1952.1kbits/s speed=0.0638x elapsed=0:01:57.86    \nframe=  376 fps=3.2 q=50.0 size=    1792KiB time=00:00:07.52 bitrate=1952.1kbits/s speed=0.0635x elapsed=0:01:58.46    \nframe=  378 fps=3.2 q=48.0 size=    1792KiB time=00:00:07.56 bitrate=1941.8kbits/s speed=0.0635x elapsed=0:01:59.06    \nframe=  380 fps=3.2 q=46.0 size=    1792KiB time=00:00:07.60 bitrate=1931.6kbits/s speed=0.0635x elapsed=0:01:59.60    \nframe=  382 fps=3.2 q=46.0 size=    1792KiB time=00:00:07.64 bitrate=1921.5kbits/s speed=0.0636x elapsed=0:02:00.20    \nframe=  384 fps=3.2 q=46.0 size=    1792KiB time=00:00:07.66 bitrate=1916.5kbits/s speed=0.0634x elapsed=0:02:00.76    \nframe=  384 fps=3.2 q=46.0 size=    1792KiB time=00:00:07.68 bitrate=1911.5kbits/s speed=0.0633x elapsed=0:02:01.34    \nframe=  386 fps=3.2 q=50.0 size=    2816KiB time=00:00:07.70 bitrate=2995.9kbits/s speed=0.0632x elapsed=0:02:01.89    \nframe=  388 fps=3.2 q=48.0 size=    2816KiB time=00:00:07.76 bitrate=2972.8kbits/s speed=0.0633x elapsed=0:02:02.50    \nframe=  390 fps=3.2 q=48.0 size=    2816KiB time=00:00:07.80 bitrate=2957.5kbits/s speed=0.0634x elapsed=0:02:03.04    \nframe=  393 fps=3.2 q=49.0 size=    2816KiB time=00:00:07.86 bitrate=2934.9kbits/s speed=0.0636x elapsed=0:02:03.59    \nframe=  395 fps=3.2 q=50.0 size=    2816KiB time=00:00:07.90 bitrate=2920.1kbits/s speed=0.0637x elapsed=0:02:04.11    \nframe=  396 fps=3.2 q=40.0 size=    2816KiB time=00:00:07.92 bitrate=2912.7kbits/s speed=0.0635x elapsed=0:02:04.63    \nframe=  398 fps=3.2 q=48.0 size=    2816KiB time=00:00:07.96 bitrate=2898.1kbits/s speed=0.0636x elapsed=0:02:05.14    \nframe=  400 fps=3.2 q=49.0 size=    2816KiB time=00:00:08.00 bitrate=2883.6kbits/s speed=0.0637x elapsed=0:02:05.66    \nframe=  401 fps=3.2 q=50.0 size=    2816KiB time=00:00:08.02 bitrate=2876.4kbits/s speed=0.0636x elapsed=0:02:06.17    \nframe=  403 fps=3.2 q=50.0 size=    2816KiB time=00:00:08.04 bitrate=2869.2kbits/s speed=0.0634x elapsed=0:02:06.73    \nframe=  404 fps=3.2 q=49.0 size=    2816KiB time=00:00:08.08 bitrate=2855.0kbits/s speed=0.0635x elapsed=0:02:07.32    \nframe=  406 fps=3.2 q=50.0 size=    2816KiB time=00:00:08.12 bitrate=2841.0kbits/s speed=0.0635x elapsed=0:02:07.94    \nframe=  407 fps=3.2 q=50.0 size=    2816KiB time=00:00:08.14 bitrate=2834.0kbits/s speed=0.0633x elapsed=0:02:08.52    \nframe=  409 fps=3.2 q=50.0 size=    2816KiB time=00:00:08.18 bitrate=2820.1kbits/s speed=0.0634x elapsed=0:02:09.02    \nframe=  410 fps=3.2 q=49.0 size=    2816KiB time=00:00:08.20 bitrate=2813.3kbits/s speed=0.0633x elapsed=0:02:09.55    \nframe=  412 fps=3.2 q=50.0 size=    2816KiB time=00:00:08.24 bitrate=2799.6kbits/s speed=0.0634x elapsed=0:02:10.06    \nframe=  413 fps=3.2 q=50.0 size=    2816KiB time=00:00:08.26 bitrate=2792.8kbits/s speed=0.0632x elapsed=0:02:10.65    \nframe=  415 fps=3.2 q=51.0 size=    2816KiB time=00:00:08.30 bitrate=2779.4kbits/s speed=0.0632x elapsed=0:02:11.25    \nframe=  418 fps=3.2 q=50.0 size=    2816KiB time=00:00:08.36 bitrate=2759.4kbits/s speed=0.0634x elapsed=0:02:11.79    \nframe=  419 fps=3.2 q=51.0 size=    2816KiB time=00:00:08.38 bitrate=2752.8kbits/s speed=0.0633x elapsed=0:02:12.33    \nframe=  421 fps=3.2 q=51.0 size=    2816KiB time=00:00:08.42 bitrate=2739.7kbits/s speed=0.0633x elapsed=0:02:12.91    \nframe=  424 fps=3.2 q=51.0 size=    2816KiB time=00:00:08.48 bitrate=2720.4kbits/s speed=0.0635x elapsed=0:02:13.50    \nframe=  425 fps=3.2 q=52.0 size=    2816KiB time=00:00:08.50 bitrate=2714.0kbits/s speed=0.0634x elapsed=0:02:14.04    \nframe=  427 fps=3.2 q=52.0 size=    2816KiB time=00:00:08.54 bitrate=2701.2kbits/s speed=0.0634x elapsed=0:02:14.60    \nframe=  430 fps=3.2 q=52.0 size=    2816KiB time=00:00:08.60 bitrate=2682.4kbits/s speed=0.0637x elapsed=0:02:15.11    \nframe=  433 fps=3.2 q=53.0 size=    2816KiB time=00:00:08.66 bitrate=2663.8kbits/s speed=0.0638x elapsed=0:02:15.64    \nframe=  436 fps=3.2 q=53.0 size=    2816KiB time=00:00:08.72 bitrate=2645.5kbits/s speed=0.064x elapsed=0:02:16.18    \nframe=  436 fps=3.2 q=53.0 size=    2816KiB time=00:00:08.72 bitrate=2645.5kbits/s speed=0.0638x elapsed=0:02:16.70    \nframe=  439 fps=3.2 q=54.0 size=    2816KiB time=00:00:08.78 bitrate=2627.4kbits/s speed=0.064x elapsed=0:02:17.26    \nframe=  442 fps=3.2 q=55.0 size=    2816KiB time=00:00:08.84 bitrate=2609.6kbits/s speed=0.0641x elapsed=0:02:17.80    \nframe=  444 fps=3.2 q=55.0 size=    2816KiB time=00:00:08.88 bitrate=2597.8kbits/s speed=0.0642x elapsed=0:02:18.34    \nframe=  446 fps=3.2 q=56.0 size=    2816KiB time=00:00:08.92 bitrate=2586.2kbits/s speed=0.0642x elapsed=0:02:18.91    \nframe=  448 fps=3.2 q=42.0 size=    2816KiB time=00:00:08.96 bitrate=2574.6kbits/s speed=0.0643x elapsed=0:02:19.41    \nframe=  451 fps=3.2 q=53.0 size=    2816KiB time=00:00:09.02 bitrate=2557.5kbits/s speed=0.0645x elapsed=0:02:19.93    \nframe=  453 fps=3.2 q=53.0 size=    2816KiB time=00:00:09.06 bitrate=2546.2kbits/s speed=0.0645x elapsed=0:02:20.46    \nframe=  456 fps=3.2 q=52.0 size=    2816KiB time=00:00:09.12 bitrate=2529.5kbits/s speed=0.0647x elapsed=0:02:20.98    \nframe=  458 fps=3.2 q=52.0 size=    2816KiB time=00:00:09.16 bitrate=2518.4kbits/s speed=0.0647x elapsed=0:02:21.49    \nframe=  459 fps=3.2 q=51.0 size=    2816KiB time=00:00:09.18 bitrate=2512.9kbits/s speed=0.0646x elapsed=0:02:22.01    \nframe=  462 fps=3.2 q=55.0 size=    2816KiB time=00:00:09.24 bitrate=2496.6kbits/s speed=0.0648x elapsed=0:02:22.57    \nframe=  465 fps=3.2 q=55.0 size=    2816KiB time=00:00:09.30 bitrate=2480.5kbits/s speed=0.065x elapsed=0:02:23.11    \nframe=  468 fps=3.3 q=54.0 size=    2816KiB time=00:00:09.36 bitrate=2464.6kbits/s speed=0.0652x elapsed=0:02:23.62    \nframe=  470 fps=3.3 q=55.0 size=    2816KiB time=00:00:09.40 bitrate=2454.1kbits/s speed=0.0652x elapsed=0:02:24.14    \nframe=  472 fps=3.3 q=49.0 size=    2816KiB time=00:00:09.44 bitrate=2443.7kbits/s speed=0.0653x elapsed=0:02:24.66    \nframe=  474 fps=3.3 q=50.0 size=    2816KiB time=00:00:09.48 bitrate=2433.4kbits/s speed=0.0653x elapsed=0:02:25.22    \nframe=  476 fps=3.3 q=51.0 size=    2816KiB time=00:00:09.52 bitrate=2423.2kbits/s speed=0.0653x elapsed=0:02:25.75    \nframe=  476 fps=3.3 q=51.0 size=    2816KiB time=00:00:09.52 bitrate=2423.2kbits/s speed=0.0651x elapsed=0:02:26.28    \nframe=  476 fps=3.2 q=51.0 size=    2816KiB time=00:00:09.52 bitrate=2423.2kbits/s speed=0.0648x elapsed=0:02:26.84    \nframe=  476 fps=3.2 q=51.0 size=    2816KiB time=00:00:09.52 bitrate=2423.2kbits/s speed=0.0646x elapsed=0:02:27.41    \nframe=  476 fps=3.2 q=51.0 size=    2816KiB time=00:00:09.52 bitrate=2423.2kbits/s speed=0.0643x elapsed=0:02:27.94    \nframe=  476 fps=3.2 q=51.0 size=    2816KiB time=00:00:09.52 bitrate=2423.2kbits/s speed=0.0641x elapsed=0:02:28.46    \nframe=  476 fps=3.2 q=51.0 size=    2816KiB time=00:00:09.52 bitrate=2423.2kbits/s speed=0.0639x elapsed=0:02:29.05    \nframe=  476 fps=3.2 q=51.0 size=    2816KiB time=00:00:09.52 bitrate=2423.2kbits/s speed=0.0637x elapsed=0:02:29.56    \nframe=  476 fps=3.2 q=51.0 size=    2816KiB time=00:00:09.52 bitrate=2423.2kbits/s speed=0.0634x elapsed=0:02:30.10    \nframe=  476 fps=3.2 q=51.0 size=    2816KiB time=00:00:09.52 bitrate=2423.2kbits/s speed=0.0632x elapsed=0:02:30.62    \nframe=  476 fps=3.1 q=51.0 size=    2816KiB time=00:00:09.52 bitrate=2423.2kbits/s speed=0.063x elapsed=0:02:31.16    \n[out#0/webm @ 000002013a759a40] video:3823KiB audio:0KiB subtitle:0KiB other streams:0KiB global headers:0KiB muxing overhead: 0.106171%\nframe=  500 fps=3.3 q=52.0 Lsize=    3827KiB time=00:00:10.00 bitrate=3134.9kbits/s speed=0.0661x elapsed=0:02:31.23    \n",
  "seconds": 151.92062783241272,
  "probe_out": {}
}